<svg xmlns="http://www.w3.org/2000/svg" xmlns:xlink="http://www.w3.org/1999/xlink" contentStyleType="text/css" height="558px" preserveAspectRatio="none" style="width:827px;height:558px;background:#FFFFFF;" version="1.1" viewBox="0 0 827 558" width="827.4px" zoomAndPan="magnify"><title>SmartHome CommandRegister Code Diagram</title><defs/><g><text fill="#000000" font-family="sans-serif" font-size="8.4" font-weight="bold" lengthAdjust="spacing" textLength="196.5551" x="311.4295" y="14.1211">SmartHome CommandRegister Code Diagram</text><g id="cluster_##2"><rect fill="none" height="229.734" rx="1.5" ry="1.5" style="stroke:#181818;stroke-width:0.6;" width="134.4" x="321.414" y="26.693"/></g><g id="cluster_##6"><rect fill="none" height="215.112" rx="1.5" ry="1.5" style="stroke:#181818;stroke-width:0.6;" width="152.4" x="671.814" y="38.951"/></g><!--class CommandRegister--><g id="elem_CommandRegister"><rect codeLine="19" fill="#F1F1F1" height="58.4789" id="CommandRegister" rx="1.5" ry="1.5" style="stroke:#181818;stroke-width:0.3;" width="115.2598" x="330.984" y="188.345"/><ellipse cx="349.4641" cy="197.945" fill="#B4A7E5" rx="6.6" ry="6.6" style="stroke:#181818;stroke-width:0.6;"/><path d="M347.0207,195.4041 L347.0207,194.1091 L351.4483,194.1091 L351.4483,195.4041 L349.9691,195.4041 L349.9691,200.25 L351.4483,200.25 L351.4483,201.545 L347.0207,201.545 L347.0207,200.25 L348.4999,200.25 L348.4999,195.4041 Z " fill="#000000"/><text fill="#000000" font-family="sans-serif" font-size="8.4" font-style="italic" lengthAdjust="spacing" textLength="74.993" x="359.9707" y="201.1196">CommandRegister</text><line style="stroke:#181818;stroke-width:0.3;" x1="331.584" x2="445.6438" y1="207.545" y2="207.545"/><line style="stroke:#181818;stroke-width:0.3;" x1="331.584" x2="445.6438" y1="212.345" y2="212.345"/><ellipse cx="337.584" cy="230.4844" fill="#84BE84" rx="1.8" ry="1.8" style="stroke:#038048;stroke-width:0.6;"/><text fill="#000000" font-family="sans-serif" font-size="8.4" lengthAdjust="spacing" textLength="41.7949" x="342.984" y="222.8661">Command</text><text fill="#000000" font-family="sans-serif" font-size="8.4" lengthAdjust="spacing" textLength="99.6598" x="342.984" y="232.759">register(CommandIntent</text><text fill="#000000" font-family="sans-serif" font-size="8.4" lengthAdjust="spacing" textLength="26.5494" x="342.984" y="242.652">intent)</text></g><!--class CommandRegisterImpl--><g id="elem_CommandRegisterImpl"><rect codeLine="23" fill="#F1F1F1" height="88.1578" id="CommandRegisterImpl" rx="1.5" ry="1.5" style="stroke:#181818;stroke-width:0.3;" width="115.2598" x="330.984" y="36.293"/><ellipse cx="341.3743" cy="45.893" fill="#ADD1B2" rx="6.6" ry="6.6" style="stroke:#181818;stroke-width:0.6;"/><path d="M343.1582,49.2788 Q342.8096,49.4581 342.4261,49.5478 Q342.0426,49.6374 341.6193,49.6374 Q340.1152,49.6374 339.3233,48.6463 Q338.5314,47.6552 338.5314,45.7825 Q338.5314,43.9049 339.3233,42.9138 Q340.1152,41.9227 341.6193,41.9227 Q342.0426,41.9227 342.4311,42.0123 Q342.8196,42.102 343.1582,42.2813 L343.1582,43.9148 Q342.7797,43.5662 342.4236,43.4043 Q342.0675,43.2425 341.689,43.2425 Q340.8822,43.2425 340.4713,43.8825 Q340.0604,44.5225 340.0604,45.7825 Q340.0604,47.0376 340.4713,47.6776 Q340.8822,48.3176 341.689,48.3176 Q342.0675,48.3176 342.4236,48.1557 Q342.7797,47.9938 343.1582,47.6452 Z " fill="#000000"/><text fill="#000000" font-family="sans-serif" font-size="8.4" lengthAdjust="spacing" textLength="92.9701" x="350.0833" y="49.0676">CommandRegisterImpl</text><line style="stroke:#181818;stroke-width:0.3;" x1="331.584" x2="445.6438" y1="55.493" y2="55.493"/><ellipse cx="337.584" cy="68.6859" fill="none" rx="1.8" ry="1.8" style="stroke:#038048;stroke-width:0.6;"/><text fill="#000000" font-family="sans-serif" font-size="8.4" lengthAdjust="spacing" textLength="83.7375" x="342.984" y="66.0141">SubscriptionChecker</text><text fill="#000000" font-family="sans-serif" font-size="8.4" lengthAdjust="spacing" textLength="47.816" x="342.984" y="75.907">subChecker</text><ellipse cx="337.584" cy="83.5254" fill="none" rx="1.8" ry="1.8" style="stroke:#038048;stroke-width:0.6;"/><text fill="#000000" font-family="sans-serif" font-size="8.4" lengthAdjust="spacing" textLength="62.233" x="342.984" y="85.8">CommandRepo</text><text fill="#000000" font-family="sans-serif" font-size="8.4" lengthAdjust="spacing" textLength="2.6578" x="405.217" y="85.8">&#160;</text><text fill="#000000" font-family="sans-serif" font-size="8.4" lengthAdjust="spacing" textLength="18.5637" x="407.8748" y="85.8">repo</text><line style="stroke:#181818;stroke-width:0.3;" x1="331.584" x2="445.6438" y1="89.9719" y2="89.9719"/><ellipse cx="337.584" cy="108.1113" fill="#84BE84" rx="1.8" ry="1.8" style="stroke:#038048;stroke-width:0.6;"/><text fill="#000000" font-family="sans-serif" font-size="8.4" lengthAdjust="spacing" textLength="41.7949" x="342.984" y="100.493">Command</text><text fill="#000000" font-family="sans-serif" font-size="8.4" lengthAdjust="spacing" textLength="99.6598" x="342.984" y="110.3859">register(CommandIntent</text><text fill="#000000" font-family="sans-serif" font-size="8.4" lengthAdjust="spacing" textLength="26.5494" x="342.984" y="120.2789">intent)</text></g><!--class CommandAssign--><g id="elem_CommandAssign"><rect codeLine="31" fill="#878787" height="53.7586" id="CommandAssign" rx="1.5" ry="1.5" style="stroke:#181818;stroke-width:0.3;" width="133.3189" x="681.354" y="190.709"/><ellipse cx="710.9468" cy="202.8953" fill="#B4A7E5" rx="6.6" ry="6.6" style="stroke:#181818;stroke-width:0.6;"/><path d="M708.5034,200.3544 L708.5034,199.0595 L712.9311,199.0595 L712.9311,200.3544 L711.4519,200.3544 L711.4519,205.2004 L712.9311,205.2004 L712.9311,206.4953 L708.5034,206.4953 L708.5034,205.2004 L709.9826,205.2004 L709.9826,200.3544 Z " fill="#000000"/><text fill="#000000" font-family="sans-serif" font-size="7.2" font-style="italic" lengthAdjust="spacing" textLength="36.1477" x="739.6896" y="200.6699">&#171;external&#187;</text><text fill="#000000" font-family="sans-serif" font-size="8.4" font-style="italic" lengthAdjust="spacing" textLength="69.0334" x="723.2468" y="210.3098">CommandAssign</text><line style="stroke:#181818;stroke-width:0.3;" x1="681.954" x2="814.0729" y1="215.0816" y2="215.0816"/><line style="stroke:#181818;stroke-width:0.3;" x1="681.954" x2="814.0729" y1="219.8816" y2="219.8816"/><ellipse cx="687.954" cy="233.0746" fill="#84BE84" rx="1.8" ry="1.8" style="stroke:#038048;stroke-width:0.6;"/><text fill="#000000" font-family="sans-serif" font-size="8.4" lengthAdjust="spacing" textLength="41.7949" x="693.354" y="230.4027">Command</text><text fill="#000000" font-family="sans-serif" font-size="8.4" lengthAdjust="spacing" textLength="2.6578" x="735.1489" y="230.4027">&#160;</text><text fill="#000000" font-family="sans-serif" font-size="8.4" lengthAdjust="spacing" textLength="26.0818" x="737.8067" y="230.4027">assign</text><text fill="#000000" font-family="sans-serif" font-size="8.4" lengthAdjust="spacing" textLength="2.6578" x="763.8886" y="230.4027">&#160;</text><text fill="#000000" font-family="sans-serif" font-size="8.4" lengthAdjust="spacing" textLength="44.5266" x="766.5464" y="230.4027">(Command</text><text fill="#000000" font-family="sans-serif" font-size="8.4" lengthAdjust="spacing" textLength="20.1633" x="693.354" y="240.2957">cmd)</text></g><!--class CommandAssignImpl--><g id="elem_CommandAssignImpl"><rect codeLine="35" fill="#878787" height="63.6516" id="CommandAssignImpl" rx="1.5" ry="1.5" style="stroke:#181818;stroke-width:0.3;" width="133.3189" x="681.354" y="48.551"/><ellipse cx="702.5528" cy="60.7373" fill="#ADD1B2" rx="6.6" ry="6.6" style="stroke:#181818;stroke-width:0.6;"/><path d="M704.3367,64.1231 Q703.988,64.3024 703.6045,64.3921 Q703.221,64.4817 702.7977,64.4817 Q701.2936,64.4817 700.5017,63.4906 Q699.7098,62.4995 699.7098,60.6268 Q699.7098,58.7492 700.5017,57.7581 Q701.2936,56.767 702.7977,56.767 Q703.221,56.767 703.6095,56.8566 Q703.998,56.9463 704.3367,57.1256 L704.3367,58.7592 Q703.9582,58.4105 703.602,58.2487 Q703.2459,58.0868 702.8674,58.0868 Q702.0606,58.0868 701.6497,58.7268 Q701.2388,59.3668 701.2388,60.6268 Q701.2388,61.8819 701.6497,62.5219 Q702.0606,63.1619 702.8674,63.1619 Q703.2459,63.1619 703.602,63 Q703.9582,62.8382 704.3367,62.4895 Z " fill="#000000"/><text fill="#000000" font-family="sans-serif" font-size="7.2" font-style="italic" lengthAdjust="spacing" textLength="36.1477" x="739.0951" y="58.5119">&#171;external&#187;</text><text fill="#000000" font-family="sans-serif" font-size="8.4" lengthAdjust="spacing" textLength="87.0105" x="713.6636" y="68.1518">CommandAssignImpl</text><line style="stroke:#181818;stroke-width:0.3;" x1="681.954" x2="814.0729" y1="72.9236" y2="72.9236"/><ellipse cx="687.954" cy="81.1701" fill="none" rx="1.8" ry="1.8" style="stroke:#038048;stroke-width:0.6;"/><text fill="#000000" font-family="sans-serif" font-size="8.4" lengthAdjust="spacing" textLength="62.233" x="693.354" y="83.4447">CommandRepo</text><text fill="#000000" font-family="sans-serif" font-size="8.4" lengthAdjust="spacing" textLength="2.6578" x="755.587" y="83.4447">&#160;</text><text fill="#000000" font-family="sans-serif" font-size="8.4" lengthAdjust="spacing" textLength="18.5637" x="758.2448" y="83.4447">repo</text><line style="stroke:#181818;stroke-width:0.3;" x1="681.954" x2="814.0729" y1="87.6166" y2="87.6166"/><ellipse cx="687.954" cy="100.8096" fill="#84BE84" rx="1.8" ry="1.8" style="stroke:#038048;stroke-width:0.6;"/><text fill="#000000" font-family="sans-serif" font-size="8.4" lengthAdjust="spacing" textLength="41.7949" x="693.354" y="98.1377">Command</text><text fill="#000000" font-family="sans-serif" font-size="8.4" lengthAdjust="spacing" textLength="2.6578" x="735.1489" y="98.1377">&#160;</text><text fill="#000000" font-family="sans-serif" font-size="8.4" lengthAdjust="spacing" textLength="26.0818" x="737.8067" y="98.1377">assign</text><text fill="#000000" font-family="sans-serif" font-size="8.4" lengthAdjust="spacing" textLength="2.6578" x="763.8886" y="98.1377">&#160;</text><text fill="#000000" font-family="sans-serif" font-size="8.4" lengthAdjust="spacing" textLength="44.5266" x="766.5464" y="98.1377">(Command</text><text fill="#000000" font-family="sans-serif" font-size="8.4" lengthAdjust="spacing" textLength="20.1633" x="693.354" y="108.0307">cmd)</text></g><!--class SubscriptionChecker--><g id="elem_SubscriptionChecker"><rect codeLine="42" fill="#878787" height="63.6516" id="SubscriptionChecker" rx="1.5" ry="1.5" style="stroke:#181818;stroke-width:0.3;" width="126.1945" x="66.318" y="185.759"/><ellipse cx="85.7837" cy="197.9453" fill="#ADD1B2" rx="6.6" ry="6.6" style="stroke:#181818;stroke-width:0.6;"/><path d="M87.5676,201.3311 Q87.2189,201.5104 86.8354,201.6001 Q86.4519,201.6897 86.0286,201.6897 Q84.5245,201.6897 83.7326,200.6986 Q82.9407,199.7075 82.9407,197.8348 Q82.9407,195.9572 83.7326,194.9661 Q84.5245,193.975 86.0286,193.975 Q86.4519,193.975 86.8404,194.0646 Q87.2289,194.1543 87.5676,194.3336 L87.5676,195.9672 Q87.189,195.6185 86.8329,195.4567 Q86.4768,195.2948 86.0983,195.2948 Q85.2915,195.2948 84.8806,195.9348 Q84.4697,196.5748 84.4697,197.8348 Q84.4697,199.0899 84.8806,199.7299 Q85.2915,200.3699 86.0983,200.3699 Q86.4768,200.3699 86.8329,200.208 Q87.189,200.0462 87.5676,199.6975 Z " fill="#000000"/><text fill="#000000" font-family="sans-serif" font-size="7.2" font-style="italic" lengthAdjust="spacing" textLength="36.1477" x="120.3043" y="195.7199">&#171;external&#187;</text><text fill="#000000" font-family="sans-serif" font-size="8.4" lengthAdjust="spacing" textLength="83.7375" x="96.5094" y="205.3598">SubscriptionChecker</text><line style="stroke:#181818;stroke-width:0.3;" x1="66.918" x2="191.9125" y1="210.1316" y2="210.1316"/><line style="stroke:#181818;stroke-width:0.3;" x1="66.918" x2="191.9125" y1="214.9316" y2="214.9316"/><ellipse cx="72.918" cy="233.0711" fill="#84BE84" rx="1.8" ry="1.8" style="stroke:#038048;stroke-width:0.6;"/><text fill="#000000" font-family="sans-serif" font-size="8.4" lengthAdjust="spacing" textLength="32.5664" x="78.318" y="225.4527">boolean</text><text fill="#000000" font-family="sans-serif" font-size="8.4" lengthAdjust="spacing" textLength="110.5945" x="78.318" y="235.3457">hasSubFor(CommandIntent</text><text fill="#000000" font-family="sans-serif" font-size="8.4" lengthAdjust="spacing" textLength="26.5494" x="78.318" y="245.2387">intent)</text></g><!--class CommandRepo--><g id="elem_CommandRepo"><rect codeLine="46" fill="#F1F1F1" height="78.2648" id="CommandRepo" rx="1.5" ry="1.5" style="stroke:#181818;stroke-width:0.3;" width="133.9137" x="467.454" y="178.451"/><ellipse cx="500.7443" cy="188.051" fill="#ADD1B2" rx="6.6" ry="6.6" style="stroke:#181818;stroke-width:0.6;"/><path d="M502.5282,191.4368 Q502.1796,191.6161 501.7961,191.7058 Q501.4126,191.7954 500.9893,191.7954 Q499.4852,191.7954 498.6933,190.8043 Q497.9014,189.8132 497.9014,187.9405 Q497.9014,186.0629 498.6933,185.0718 Q499.4852,184.0807 500.9893,184.0807 Q501.4126,184.0807 501.8011,184.1703 Q502.1895,184.26 502.5282,184.4393 L502.5282,186.0728 Q502.1497,185.7242 501.7936,185.5623 Q501.4375,185.4005 501.059,185.4005 Q500.2521,185.4005 499.8413,186.0405 Q499.4304,186.6805 499.4304,187.9405 Q499.4304,189.1956 499.8413,189.8356 Q500.2521,190.4756 501.059,190.4756 Q501.4375,190.4756 501.7936,190.3137 Q502.1497,190.1518 502.5282,189.8032 Z " fill="#000000"/><text fill="#000000" font-family="sans-serif" font-size="8.4" lengthAdjust="spacing" textLength="62.233" x="513.0443" y="191.2256">CommandRepo</text><line style="stroke:#181818;stroke-width:0.3;" x1="468.054" x2="600.7677" y1="197.651" y2="197.651"/><line style="stroke:#181818;stroke-width:0.3;" x1="468.054" x2="600.7677" y1="202.451" y2="202.451"/><ellipse cx="474.054" cy="210.6975" fill="#84BE84" rx="1.8" ry="1.8" style="stroke:#038048;stroke-width:0.6;"/><text fill="#000000" font-family="sans-serif" font-size="8.4" lengthAdjust="spacing" textLength="69.4805" x="479.454" y="212.9721">List&lt;Command&gt;</text><text fill="#000000" font-family="sans-serif" font-size="8.4" lengthAdjust="spacing" textLength="2.6578" x="548.9345" y="212.9721">&#160;</text><text fill="#000000" font-family="sans-serif" font-size="8.4" lengthAdjust="spacing" textLength="32.1316" x="551.5923" y="212.9721">findAll()</text><ellipse cx="474.054" cy="220.5904" fill="#84BE84" rx="1.8" ry="1.8" style="stroke:#038048;stroke-width:0.6;"/><text fill="#000000" font-family="sans-serif" font-size="8.4" lengthAdjust="spacing" textLength="69.4805" x="479.454" y="222.865">List&lt;Command&gt;</text><text fill="#000000" font-family="sans-serif" font-size="8.4" lengthAdjust="spacing" textLength="2.6578" x="548.9345" y="222.865">&#160;</text><text fill="#000000" font-family="sans-serif" font-size="8.4" lengthAdjust="spacing" textLength="46.1754" x="551.5923" y="222.865">findActive()</text><ellipse cx="474.054" cy="230.4834" fill="#84BE84" rx="1.8" ry="1.8" style="stroke:#038048;stroke-width:0.6;"/><text fill="#000000" font-family="sans-serif" font-size="8.4" lengthAdjust="spacing" textLength="10.783" x="479.454" y="232.758">int</text><text fill="#000000" font-family="sans-serif" font-size="8.4" lengthAdjust="spacing" textLength="2.6578" x="490.237" y="232.758">&#160;</text><text fill="#000000" font-family="sans-serif" font-size="8.4" lengthAdjust="spacing" textLength="15.2127" x="492.8948" y="232.758">add</text><text fill="#000000" font-family="sans-serif" font-size="8.4" lengthAdjust="spacing" textLength="2.6578" x="508.1075" y="232.758">&#160;</text><text fill="#000000" font-family="sans-serif" font-size="8.4" lengthAdjust="spacing" textLength="44.5266" x="510.7653" y="232.758">(Command</text><text fill="#000000" font-family="sans-serif" font-size="8.4" lengthAdjust="spacing" textLength="2.6578" x="555.2919" y="232.758">&#160;</text><text fill="#000000" font-family="sans-serif" font-size="8.4" lengthAdjust="spacing" textLength="20.1633" x="557.9497" y="232.758">cmd)</text><ellipse cx="474.054" cy="240.3764" fill="#84BE84" rx="1.8" ry="1.8" style="stroke:#038048;stroke-width:0.6;"/><text fill="#000000" font-family="sans-serif" font-size="8.4" lengthAdjust="spacing" textLength="10.783" x="479.454" y="242.651">int</text><text fill="#000000" font-family="sans-serif" font-size="8.4" lengthAdjust="spacing" textLength="2.6578" x="490.237" y="242.651">&#160;</text><text fill="#000000" font-family="sans-serif" font-size="8.4" lengthAdjust="spacing" textLength="24.8965" x="492.8948" y="242.651">delete</text><text fill="#000000" font-family="sans-serif" font-size="8.4" lengthAdjust="spacing" textLength="2.6578" x="517.7913" y="242.651">&#160;</text><text fill="#000000" font-family="sans-serif" font-size="8.4" lengthAdjust="spacing" textLength="44.5266" x="520.4491" y="242.651">(Command</text><text fill="#000000" font-family="sans-serif" font-size="8.4" lengthAdjust="spacing" textLength="2.6578" x="564.9757" y="242.651">&#160;</text><text fill="#000000" font-family="sans-serif" font-size="8.4" lengthAdjust="spacing" textLength="20.1633" x="567.6335" y="242.651">cmd)</text><ellipse cx="474.054" cy="250.2693" fill="#84BE84" rx="1.8" ry="1.8" style="stroke:#038048;stroke-width:0.6;"/><text fill="#000000" font-family="sans-serif" font-size="8.4" lengthAdjust="spacing" textLength="10.783" x="479.454" y="252.5439">int</text><text fill="#000000" font-family="sans-serif" font-size="8.4" lengthAdjust="spacing" textLength="2.6578" x="490.237" y="252.5439">&#160;</text><text fill="#000000" font-family="sans-serif" font-size="8.4" lengthAdjust="spacing" textLength="28.2475" x="492.8948" y="252.5439">update</text><text fill="#000000" font-family="sans-serif" font-size="8.4" lengthAdjust="spacing" textLength="2.6578" x="521.1423" y="252.5439">&#160;</text><text fill="#000000" font-family="sans-serif" font-size="8.4" lengthAdjust="spacing" textLength="44.5266" x="523.8001" y="252.5439">(Command</text><text fill="#000000" font-family="sans-serif" font-size="8.4" lengthAdjust="spacing" textLength="2.6578" x="568.3267" y="252.5439">&#160;</text><text fill="#000000" font-family="sans-serif" font-size="8.4" lengthAdjust="spacing" textLength="20.1633" x="570.9845" y="252.5439">cmd)</text></g><!--class Command--><g id="elem_Command"><rect codeLine="54" fill="#F1F1F1" height="137.6227" id="Command" rx="1.5" ry="1.5" style="stroke:#181818;stroke-width:0.3;" width="109.6939" x="553.368" y="302.321"/><ellipse cx="584.7675" cy="311.921" fill="#ADD1B2" rx="6.6" ry="6.6" style="stroke:#181818;stroke-width:0.6;"/><path d="M586.5514,315.3068 Q586.2028,315.4861 585.8193,315.5758 Q585.4358,315.6654 585.0124,315.6654 Q583.5083,315.6654 582.7164,314.6743 Q581.9245,313.6832 581.9245,311.8105 Q581.9245,309.9329 582.7164,308.9418 Q583.5083,307.9507 585.0124,307.9507 Q585.4358,307.9507 585.8243,308.0403 Q586.2127,308.13 586.5514,308.3093 L586.5514,309.9428 Q586.1729,309.5942 585.8168,309.4323 Q585.4607,309.2705 585.0822,309.2705 Q584.2753,309.2705 583.8644,309.9105 Q583.4535,310.5505 583.4535,311.8105 Q583.4535,313.0656 583.8644,313.7056 Q584.2753,314.3456 585.0822,314.3456 Q585.4607,314.3456 585.8168,314.1837 Q586.1729,314.0218 586.5514,313.6732 Z " fill="#000000"/><text fill="#000000" font-family="sans-serif" font-size="8.4" lengthAdjust="spacing" textLength="41.7949" x="597.0675" y="315.0956">Command</text><line style="stroke:#181818;stroke-width:0.3;" x1="553.968" x2="662.4619" y1="321.521" y2="321.521"/><ellipse cx="559.968" cy="329.7675" fill="none" rx="1.8" ry="1.8" style="stroke:#038048;stroke-width:0.6;"/><text fill="#000000" font-family="sans-serif" font-size="8.4" lengthAdjust="spacing" textLength="18.0387" x="565.368" y="332.0421">long</text><text fill="#000000" font-family="sans-serif" font-size="8.4" lengthAdjust="spacing" textLength="2.6578" x="583.4067" y="332.0421">&#160;</text><text fill="#000000" font-family="sans-serif" font-size="8.4" lengthAdjust="spacing" textLength="25.3189" x="586.0645" y="332.0421">userId</text><ellipse cx="559.968" cy="339.6604" fill="none" rx="1.8" ry="1.8" style="stroke:#038048;stroke-width:0.6;"/><text fill="#000000" font-family="sans-serif" font-size="8.4" lengthAdjust="spacing" textLength="18.0387" x="565.368" y="341.935">long</text><text fill="#000000" font-family="sans-serif" font-size="8.4" lengthAdjust="spacing" textLength="2.6578" x="583.4067" y="341.935">&#160;</text><text fill="#000000" font-family="sans-serif" font-size="8.4" lengthAdjust="spacing" textLength="7.715" x="586.0645" y="341.935">id</text><ellipse cx="559.968" cy="349.5534" fill="none" rx="1.8" ry="1.8" style="stroke:#038048;stroke-width:0.6;"/><text fill="#000000" font-family="sans-serif" font-size="8.4" lengthAdjust="spacing" textLength="18.0387" x="565.368" y="351.828">long</text><text fill="#000000" font-family="sans-serif" font-size="8.4" lengthAdjust="spacing" textLength="2.6578" x="583.4067" y="351.828">&#160;</text><text fill="#000000" font-family="sans-serif" font-size="8.4" lengthAdjust="spacing" textLength="33.4318" x="586.0645" y="351.828">deviceId</text><ellipse cx="559.968" cy="359.4464" fill="none" rx="1.8" ry="1.8" style="stroke:#038048;stroke-width:0.6;"/><text fill="#000000" font-family="sans-serif" font-size="8.4" lengthAdjust="spacing" textLength="18.0387" x="565.368" y="361.721">long</text><text fill="#000000" font-family="sans-serif" font-size="8.4" lengthAdjust="spacing" textLength="2.6578" x="583.4067" y="361.721">&#160;</text><text fill="#000000" font-family="sans-serif" font-size="8.4" lengthAdjust="spacing" textLength="24.7324" x="586.0645" y="361.721">portId</text><ellipse cx="559.968" cy="369.3393" fill="none" rx="1.8" ry="1.8" style="stroke:#038048;stroke-width:0.6;"/><text fill="#000000" font-family="sans-serif" font-size="8.4" lengthAdjust="spacing" textLength="10.783" x="565.368" y="371.6139">int</text><text fill="#000000" font-family="sans-serif" font-size="8.4" lengthAdjust="spacing" textLength="2.6578" x="576.151" y="371.6139">&#160;</text><text fill="#000000" font-family="sans-serif" font-size="8.4" lengthAdjust="spacing" textLength="21.3076" x="578.8088" y="371.6139">value</text><ellipse cx="559.968" cy="379.2323" fill="none" rx="1.8" ry="1.8" style="stroke:#038048;stroke-width:0.6;"/><text fill="#000000" font-family="sans-serif" font-size="8.4" lengthAdjust="spacing" textLength="10.783" x="565.368" y="381.5069">int</text><text fill="#000000" font-family="sans-serif" font-size="8.4" lengthAdjust="spacing" textLength="2.6578" x="576.151" y="381.5069">&#160;</text><text fill="#000000" font-family="sans-serif" font-size="8.4" lengthAdjust="spacing" textLength="29.7076" x="578.8088" y="381.5069">priority</text><ellipse cx="559.968" cy="389.1253" fill="none" rx="1.8" ry="1.8" style="stroke:#038048;stroke-width:0.6;"/><text fill="#000000" font-family="sans-serif" font-size="8.4" lengthAdjust="spacing" textLength="66.7365" x="565.368" y="391.3999">CommandStatus</text><text fill="#000000" font-family="sans-serif" font-size="8.4" lengthAdjust="spacing" textLength="2.6578" x="632.1045" y="391.3999">&#160;</text><text fill="#000000" font-family="sans-serif" font-size="8.4" lengthAdjust="spacing" textLength="24.6996" x="634.7623" y="391.3999">status</text><ellipse cx="559.968" cy="399.0182" fill="none" rx="1.8" ry="1.8" style="stroke:#038048;stroke-width:0.6;"/><text fill="#000000" font-family="sans-serif" font-size="8.4" lengthAdjust="spacing" textLength="28.0506" x="565.368" y="401.2928">Instant</text><text fill="#000000" font-family="sans-serif" font-size="8.4" lengthAdjust="spacing" textLength="2.6578" x="593.4186" y="401.2928">&#160;</text><text fill="#000000" font-family="sans-serif" font-size="8.4" lengthAdjust="spacing" textLength="50.2277" x="596.0764" y="401.2928">registeredAt</text><ellipse cx="559.968" cy="408.9112" fill="none" rx="1.8" ry="1.8" style="stroke:#038048;stroke-width:0.6;"/><text fill="#000000" font-family="sans-serif" font-size="8.4" lengthAdjust="spacing" textLength="28.0506" x="565.368" y="411.1858">Instant</text><text fill="#000000" font-family="sans-serif" font-size="8.4" lengthAdjust="spacing" textLength="2.6578" x="593.4186" y="411.1858">&#160;</text><text fill="#000000" font-family="sans-serif" font-size="8.4" lengthAdjust="spacing" textLength="57.4219" x="596.0764" y="411.1858">plannedRunAt</text><ellipse cx="559.968" cy="418.8042" fill="none" rx="1.8" ry="1.8" style="stroke:#038048;stroke-width:0.6;"/><text fill="#000000" font-family="sans-serif" font-size="8.4" lengthAdjust="spacing" textLength="28.0506" x="565.368" y="421.0788">Instant</text><text fill="#000000" font-family="sans-serif" font-size="8.4" lengthAdjust="spacing" textLength="2.6578" x="593.4186" y="421.0788">&#160;</text><text fill="#000000" font-family="sans-serif" font-size="8.4" lengthAdjust="spacing" textLength="41.557" x="596.0764" y="421.0788">finishedAt</text><ellipse cx="559.968" cy="428.6971" fill="none" rx="1.8" ry="1.8" style="stroke:#038048;stroke-width:0.6;"/><text fill="#000000" font-family="sans-serif" font-size="8.4" lengthAdjust="spacing" textLength="23.9818" x="565.368" y="430.9718">String</text><text fill="#000000" font-family="sans-serif" font-size="8.4" lengthAdjust="spacing" textLength="2.6578" x="589.3498" y="430.9718">&#160;</text><text fill="#000000" font-family="sans-serif" font-size="8.4" lengthAdjust="spacing" textLength="39.3873" x="592.0076" y="430.9718">createdBy</text><line style="stroke:#181818;stroke-width:0.3;" x1="553.968" x2="662.4619" y1="435.1436" y2="435.1436"/></g><!--class CommandIntent--><g id="elem_CommandIntent"><rect codeLine="68" fill="#F1F1F1" height="98.0508" id="CommandIntent" rx="1.5" ry="1.5" style="stroke:#181818;stroke-width:0.3;" width="85.4127" x="86.706" y="322.103"/><ellipse cx="95.9797" cy="331.703" fill="#ADD1B2" rx="6.6" ry="6.6" style="stroke:#181818;stroke-width:0.6;"/><path d="M97.7636,335.0888 Q97.4149,335.2681 97.0314,335.3578 Q96.648,335.4474 96.2246,335.4474 Q94.7205,335.4474 93.9286,334.4563 Q93.1367,333.4652 93.1367,331.5925 Q93.1367,329.7149 93.9286,328.7238 Q94.7205,327.7327 96.2246,327.7327 Q96.648,327.7327 97.0364,327.8223 Q97.4249,327.912 97.7636,328.0913 L97.7636,329.7248 Q97.3851,329.3762 97.029,329.2143 Q96.6729,329.0525 96.2943,329.0525 Q95.4875,329.0525 95.0766,329.6925 Q94.6657,330.3325 94.6657,331.5925 Q94.6657,332.8476 95.0766,333.4876 Q95.4875,334.1276 96.2943,334.1276 Q96.6729,334.1276 97.029,333.9657 Q97.3851,333.8038 97.7636,333.4552 Z " fill="#000000"/><text fill="#000000" font-family="sans-serif" font-size="8.4" lengthAdjust="spacing" textLength="65.6045" x="104.4405" y="334.8776">CommandIntent</text><line style="stroke:#181818;stroke-width:0.3;" x1="87.306" x2="171.5187" y1="341.303" y2="341.303"/><ellipse cx="93.306" cy="349.5495" fill="none" rx="1.8" ry="1.8" style="stroke:#038048;stroke-width:0.6;"/><text fill="#000000" font-family="sans-serif" font-size="8.4" lengthAdjust="spacing" textLength="18.0387" x="98.706" y="351.8241">long</text><text fill="#000000" font-family="sans-serif" font-size="8.4" lengthAdjust="spacing" textLength="2.6578" x="116.7447" y="351.8241">&#160;</text><text fill="#000000" font-family="sans-serif" font-size="8.4" lengthAdjust="spacing" textLength="25.3189" x="119.4025" y="351.8241">userId</text><ellipse cx="93.306" cy="359.4424" fill="none" rx="1.8" ry="1.8" style="stroke:#038048;stroke-width:0.6;"/><text fill="#000000" font-family="sans-serif" font-size="8.4" lengthAdjust="spacing" textLength="18.0387" x="98.706" y="361.717">long</text><text fill="#000000" font-family="sans-serif" font-size="8.4" lengthAdjust="spacing" textLength="2.6578" x="116.7447" y="361.717">&#160;</text><text fill="#000000" font-family="sans-serif" font-size="8.4" lengthAdjust="spacing" textLength="33.4318" x="119.4025" y="361.717">deviceId</text><ellipse cx="93.306" cy="369.3354" fill="none" rx="1.8" ry="1.8" style="stroke:#038048;stroke-width:0.6;"/><text fill="#000000" font-family="sans-serif" font-size="8.4" lengthAdjust="spacing" textLength="18.0387" x="98.706" y="371.61">long</text><text fill="#000000" font-family="sans-serif" font-size="8.4" lengthAdjust="spacing" textLength="2.6578" x="116.7447" y="371.61">&#160;</text><text fill="#000000" font-family="sans-serif" font-size="8.4" lengthAdjust="spacing" textLength="24.7324" x="119.4025" y="371.61">portId</text><ellipse cx="93.306" cy="379.2284" fill="none" rx="1.8" ry="1.8" style="stroke:#038048;stroke-width:0.6;"/><text fill="#000000" font-family="sans-serif" font-size="8.4" lengthAdjust="spacing" textLength="10.783" x="98.706" y="381.503">int</text><text fill="#000000" font-family="sans-serif" font-size="8.4" lengthAdjust="spacing" textLength="2.6578" x="109.489" y="381.503">&#160;</text><text fill="#000000" font-family="sans-serif" font-size="8.4" lengthAdjust="spacing" textLength="21.3076" x="112.1468" y="381.503">value</text><ellipse cx="93.306" cy="389.1213" fill="none" rx="1.8" ry="1.8" style="stroke:#038048;stroke-width:0.6;"/><text fill="#000000" font-family="sans-serif" font-size="8.4" lengthAdjust="spacing" textLength="10.783" x="98.706" y="391.3959">int</text><text fill="#000000" font-family="sans-serif" font-size="8.4" lengthAdjust="spacing" textLength="2.6578" x="109.489" y="391.3959">&#160;</text><text fill="#000000" font-family="sans-serif" font-size="8.4" lengthAdjust="spacing" textLength="29.7076" x="112.1468" y="391.3959">priority</text><ellipse cx="93.306" cy="399.0143" fill="none" rx="1.8" ry="1.8" style="stroke:#038048;stroke-width:0.6;"/><text fill="#000000" font-family="sans-serif" font-size="8.4" lengthAdjust="spacing" textLength="28.0506" x="98.706" y="401.2889">Instant</text><text fill="#000000" font-family="sans-serif" font-size="8.4" lengthAdjust="spacing" textLength="2.6578" x="126.7566" y="401.2889">&#160;</text><text fill="#000000" font-family="sans-serif" font-size="8.4" lengthAdjust="spacing" textLength="39.1043" x="129.4144" y="401.2889">createdAt</text><ellipse cx="93.306" cy="408.9073" fill="none" rx="1.8" ry="1.8" style="stroke:#038048;stroke-width:0.6;"/><text fill="#000000" font-family="sans-serif" font-size="8.4" lengthAdjust="spacing" textLength="23.9818" x="98.706" y="411.1819">String</text><text fill="#000000" font-family="sans-serif" font-size="8.4" lengthAdjust="spacing" textLength="2.6578" x="122.6878" y="411.1819">&#160;</text><text fill="#000000" font-family="sans-serif" font-size="8.4" lengthAdjust="spacing" textLength="39.3873" x="125.3456" y="411.1819">createdBy</text><line style="stroke:#181818;stroke-width:0.3;" x1="87.306" x2="171.5187" y1="415.3538" y2="415.3538"/></g><!--class CommandStatus--><g id="elem_CommandStatus"><rect codeLine="78" fill="#F1F1F1" height="68.3719" id="CommandStatus" rx="1.5" ry="1.5" style="stroke:#181818;stroke-width:0.3;" width="85.9365" x="565.248" y="485.543"/><ellipse cx="574.248" cy="495.143" fill="#EB937F" rx="6.6" ry="6.6" style="stroke:#181818;stroke-width:0.6;"/><path d="M576.7166,498.743 L572.0847,498.743 L572.0847,491.3071 L576.7166,491.3071 L576.7166,492.6021 L573.554,492.6021 L573.554,494.2058 L576.4177,494.2058 L576.4177,495.5007 L573.554,495.5007 L573.554,497.448 L576.7166,497.448 Z " fill="#000000"/><text fill="#000000" font-family="sans-serif" font-size="8.4" lengthAdjust="spacing" textLength="66.7365" x="582.648" y="498.3176">CommandStatus</text><line style="stroke:#181818;stroke-width:0.3;" x1="565.848" x2="650.5845" y1="504.743" y2="504.743"/><ellipse cx="571.848" cy="512.9895" fill="none" rx="1.8" ry="1.8" style="stroke:#038048;stroke-width:0.6;"/><text fill="#000000" font-family="sans-serif" font-size="8.4" lengthAdjust="spacing" textLength="24.232" x="577.248" y="515.2641">SEND,</text><ellipse cx="571.848" cy="522.8824" fill="none" rx="1.8" ry="1.8" style="stroke:#038048;stroke-width:0.6;"/><text fill="#000000" font-family="sans-serif" font-size="8.4" lengthAdjust="spacing" textLength="41.6432" x="577.248" y="525.157">RECEIVED,</text><ellipse cx="571.848" cy="532.7754" fill="none" rx="1.8" ry="1.8" style="stroke:#038048;stroke-width:0.6;"/><text fill="#000000" font-family="sans-serif" font-size="8.4" lengthAdjust="spacing" textLength="14.6672" x="577.248" y="535.05">OK,</text><ellipse cx="571.848" cy="542.6684" fill="none" rx="1.8" ry="1.8" style="stroke:#038048;stroke-width:0.6;"/><text fill="#000000" font-family="sans-serif" font-size="8.4" lengthAdjust="spacing" textLength="28.0424" x="577.248" y="544.943">FAILED</text><line style="stroke:#181818;stroke-width:0.3;" x1="565.848" x2="650.5845" y1="549.1148" y2="549.1148"/></g><!--link CommandRegisterImpl to CommandRegister--><g id="link_CommandRegisterImpl_CommandRegister"><path codeLine="85" d="M388.614,124.571 C388.614,145.397 388.614,158.939 388.614,177.413 " fill="none" id="CommandRegisterImpl-to-CommandRegister" style="stroke:#666666;stroke-width:0.6;stroke-dasharray:7.0,7.0;"/><polygon fill="none" points="388.614,188.213,392.214,177.413,385.014,177.413,388.614,188.213" style="stroke:#666666;stroke-width:0.6;"/><text fill="#666666" font-family="sans-serif" font-size="7.2" lengthAdjust="spacing" textLength="40.9922" x="389.214" y="154.2119">implements</text></g><!--link CommandAssignImpl to CommandAssign--><g id="link_CommandAssignImpl_CommandAssign"><path codeLine="86" d="M748.014,112.349 C748.014,136.043 748.014,157.391 748.014,179.777 " fill="none" id="CommandAssignImpl-to-CommandAssign" style="stroke:#666666;stroke-width:0.6;stroke-dasharray:7.0,7.0;"/><polygon fill="none" points="748.014,190.577,751.614,179.777,744.414,179.777,748.014,190.577" style="stroke:#666666;stroke-width:0.6;"/><text fill="#666666" font-family="sans-serif" font-size="7.2" lengthAdjust="spacing" textLength="40.9922" x="748.614" y="154.2119">implements</text></g><!--link CommandRegisterImpl to CommandIntent--><g id="link_CommandRegisterImpl_CommandIntent"><path codeLine="87" d="M330.774,123.797 C322.896,129.941 314.988,136.277 307.614,142.451 C289.53,157.601 284.28,160.817 268.614,178.451 C246.462,203.393 198.6603,270.7354 165.0303,318.9934 " fill="none" id="CommandRegisterImpl-to-CommandIntent" style="stroke:#666666;stroke-width:0.6;stroke-dasharray:7.0,7.0;"/><polygon fill="#666666" points="162.972,321.947,168.0284,318.8888,164.6872,319.4857,164.0904,316.1444,162.972,321.947" style="stroke:#666666;stroke-width:0.6;"/><text fill="#666666" font-family="sans-serif" font-size="7.2" lengthAdjust="spacing" textLength="15.8203" x="269.214" y="220.3499">uses</text></g><!--link CommandRegisterImpl to CommandIntent--><g id="link_CommandRegisterImpl_CommandIntent"><path codeLine="97" d="M330.816,88.487 C240.708,101.525 73.458,131.543 38.814,178.451 C3.6,226.127 45.873,287.0414 84.033,327.7214 " fill="none" id="CommandRegisterImpl-to-CommandIntent-1" style="stroke:#666666;stroke-width:0.6;stroke-dasharray:7.0,7.0;"/><polygon fill="#666666" points="86.496,330.347,84.552,324.7666,84.4435,328.159,81.0512,328.0505,86.496,330.347" style="stroke:#666666;stroke-width:0.6;"/><text fill="#666666" font-family="sans-serif" font-size="7.2" lengthAdjust="spacing" textLength="15.8203" x="39.414" y="220.3499">uses</text></g><!--link CommandRegisterImpl to Command--><g id="link_CommandRegisterImpl_Command"><path codeLine="88" d="M338.586,124.667 C324.444,140.081 310.878,158.567 303.414,178.451 C290.484,212.897 282.24,231.143 303.414,261.227 C360.072,341.735 478.2589,362.9653 549.5509,368.5213 " fill="none" id="CommandRegisterImpl-to-Command" style="stroke:#666666;stroke-width:0.6;stroke-dasharray:7.0,7.0;"/><polygon fill="#666666" points="553.14,368.801,547.9428,365.9887,550.1491,368.5679,547.5699,370.7741,553.14,368.801" style="stroke:#666666;stroke-width:0.6;"/><text fill="#666666" font-family="sans-serif" font-size="7.2" lengthAdjust="spacing" textLength="15.8203" x="304.014" y="220.3499">uses</text></g><!--link CommandAssign to Command--><g id="link_CommandAssign_Command"><path codeLine="89" d="M723.66,244.721 C706.998,262.883 686.656,285.0525 665.734,307.8525 " fill="none" id="CommandAssign-to-Command" style="stroke:#666666;stroke-width:0.6;stroke-dasharray:7.0,7.0;"/><polygon fill="#666666" points="663.3,310.505,668.7193,308.1489,665.3283,308.2946,665.1827,304.9036,663.3,310.505" style="stroke:#666666;stroke-width:0.6;"/><text fill="#666666" font-family="sans-serif" font-size="7.2" lengthAdjust="spacing" textLength="15.8203" x="695.346" y="282.2819">uses</text></g><!--link CommandAssignImpl to Command--><g id="link_CommandAssignImpl_Command"><path codeLine="90" d="M708.936,112.433 C689.634,129.947 667.596,153.269 653.814,178.451 C632.958,216.563 622.1504,260.4691 615.9764,298.6711 " fill="none" id="CommandAssignImpl-to-Command" style="stroke:#666666;stroke-width:0.6;stroke-dasharray:7.0,7.0;"/><polygon fill="#666666" points="615.402,302.225,618.6328,297.277,615.8806,299.2634,613.8943,296.5112,615.402,302.225" style="stroke:#666666;stroke-width:0.6;"/><text fill="#666666" font-family="sans-serif" font-size="7.2" lengthAdjust="spacing" textLength="15.8203" x="654.414" y="220.3499">uses</text></g><!--link CommandRegisterImpl to SubscriptionChecker--><g id="link_CommandRegisterImpl_SubscriptionChecker"><path codeLine="91" d="M330.81,86.807 C285.528,93.821 222.894,109.139 178.014,142.451 C163.128,153.503 153.2318,167.4011 145.1018,182.4191 " fill="none" id="CommandRegisterImpl-to-SubscriptionChecker" style="stroke:#666666;stroke-width:0.6;stroke-dasharray:7.0,7.0;"/><polygon fill="#666666" points="143.388,185.585,148.0693,181.9787,144.8162,182.9467,143.8482,179.6936,143.388,185.585" style="stroke:#666666;stroke-width:0.6;"/><text fill="#666666" font-family="sans-serif" font-size="7.2" lengthAdjust="spacing" textLength="40.1062" x="178.614" y="150.0119">constructor</text><text fill="#666666" font-family="sans-serif" font-size="7.2" lengthAdjust="spacing" textLength="2.2781" x="182.4759" y="158.4916">&#160;</text><text fill="#666666" font-family="sans-serif" font-size="7.2" lengthAdjust="spacing" textLength="30.1043" x="184.754" y="158.4916">injection</text></g><!--link CommandRegisterImpl to CommandRepo--><g id="link_CommandRegisterImpl_CommandRepo"><path codeLine="92" d="M435.348,124.571 C453.84,141.821 472.2855,159.0273 490.2375,175.7733 " fill="none" id="CommandRegisterImpl-to-CommandRepo" style="stroke:#666666;stroke-width:0.6;stroke-dasharray:7.0,7.0;"/><polygon fill="#666666" points="492.87,178.229,490.5584,172.7906,490.6763,176.1826,487.2842,176.3005,492.87,178.229" style="stroke:#666666;stroke-width:0.6;"/><text fill="#666666" font-family="sans-serif" font-size="7.2" lengthAdjust="spacing" textLength="40.1062" x="470.844" y="150.0119">constructor</text><text fill="#666666" font-family="sans-serif" font-size="7.2" lengthAdjust="spacing" textLength="2.2781" x="474.7059" y="158.4916">&#160;</text><text fill="#666666" font-family="sans-serif" font-size="7.2" lengthAdjust="spacing" textLength="30.1043" x="476.984" y="158.4916">injection</text></g><!--link CommandAssignImpl to CommandRepo--><g id="link_CommandAssignImpl_CommandRepo"><path codeLine="93" d="M681.114,96.893 C650.346,106.523 614.664,121.157 587.214,142.451 C574.746,152.123 565.9844,162.5393 557.5004,175.3253 " fill="none" id="CommandAssignImpl-to-CommandRepo" style="stroke:#666666;stroke-width:0.6;stroke-dasharray:7.0,7.0;"/><polygon fill="#666666" points="555.51,178.325,560.4954,175.1524,557.1687,175.8252,556.4958,172.4985,555.51,178.325" style="stroke:#666666;stroke-width:0.6;"/><text fill="#666666" font-family="sans-serif" font-size="7.2" lengthAdjust="spacing" textLength="40.1062" x="587.814" y="150.0119">constructor</text><text fill="#666666" font-family="sans-serif" font-size="7.2" lengthAdjust="spacing" textLength="2.2781" x="591.6759" y="158.4916">&#160;</text><text fill="#666666" font-family="sans-serif" font-size="7.2" lengthAdjust="spacing" textLength="30.1043" x="593.954" y="158.4916">injection</text></g><!--link CommandRepo to Command--><g id="link_CommandRepo_Command"><path codeLine="95" d="M553.134,256.823 C559.836,270.665 566.0365,283.4691 573.5905,299.0631 " fill="none" id="CommandRepo-to-Command" style="stroke:#666666;stroke-width:0.6;stroke-dasharray:7.0,7.0;"/><polygon fill="#666666" points="575.16,302.303,574.9657,296.3968,573.8521,299.6031,570.6459,298.4895,575.16,302.303" style="stroke:#666666;stroke-width:0.6;"/><text fill="#666666" font-family="sans-serif" font-size="7.2" lengthAdjust="spacing" textLength="15.8203" x="565.302" y="282.2819">uses</text></g><!--link SubscriptionChecker to CommandIntent--><g id="link_SubscriptionChecker_CommandIntent"><path codeLine="96" d="M129.414,249.569 C129.414,270.473 129.414,294.755 129.414,318.485 " fill="none" id="SubscriptionChecker-to-CommandIntent" style="stroke:#666666;stroke-width:0.6;stroke-dasharray:7.0,7.0;"/><polygon fill="#666666" points="129.414,322.085,131.814,316.685,129.414,319.085,127.014,316.685,129.414,322.085" style="stroke:#666666;stroke-width:0.6;"/><text fill="#666666" font-family="sans-serif" font-size="7.2" lengthAdjust="spacing" textLength="15.8203" x="130.014" y="282.2819">uses</text></g><!--link Command to CommandStatus--><g id="link_Command_CommandStatus"><path codeLine="99" d="M608.214,440.033 C608.214,455.771 608.214,468.245 608.214,481.751 " fill="none" id="Command-to-CommandStatus" style="stroke:#666666;stroke-width:0.6;"/><polygon fill="#666666" points="608.214,485.351,610.614,479.951,608.214,482.351,605.814,479.951,608.214,485.351" style="stroke:#666666;stroke-width:0.6;"/><text fill="#666666" font-family="sans-serif" font-size="7.2" lengthAdjust="spacing" textLength="12.1148" x="608.814" y="465.5039">has</text></g><!--SRC=[fLLRQzim57xNhpXZ3sdfchuCDa8mD9UoiB910jlBOAZMQQ9LbemkPMNhVz-HBNUfxSIZSnvq-SxbEv-a4o-zGjWKtFeFfa2OcwBWMgnnAvr7Isk1i91yQtd1c3SbU0CtndjJW90MSo-DPYCscZh_e31ZexZ7zLRXM72tGp4pLb2WNsm4S2qrRg8TB2gisPiRPIpC5C_lujQCngqrGOiQ-BgJ7jdeaR9Sf3JibTIv2WA3LJ0UNypVVezKnsKe51j0dnWIAQ1FQghqbkUTwciuVcSD13PX9sbZHSxQLp6qFwqS7barv8exrmwvAagr7tOJRbnkPHbbdEymloEfNBX9qsx-DPQ6E9JcfTH8nFFsDwp8fNDogs4wnP-4QAwo35w_VnT_VIBnshmX0daX3ajJnux2_6lyOo8SIKt9UsglkVITGn-R9D0PlG6Za6lOSKU-L-QGwfIqTH5AqyIufkEQflqCRYLfeTJ9wM6KNjizFXbG2k12zDHQOm8LUZm8XrBm3jocMzLx1iheBGH7zrVyNSkzkS1xcUC-MXhhqpfck-SguDEgjD9OwH_Otj5jFFV1WQk62bXfMf1rSx5HNFfdGAcurYZMGRS0Kal61fEsDzvAefHRf8h5xA5JPZgq8yN-Ju4DgvJ_22dKeMZfKNFQB3yjtbIpzNA-N7rPfjNdZ_LuTRcwNYvYY9w6GotmTzPfxHEGX651XJlMVOlxFkdvztcqycGjHITHo47ZbbbADsGm4AMJhE-DJo0tT3esvDxORvhExaVwJnkWNFMWGUz-eWE-RD-ifxw-Ebwg_7FZnXhEpxFMDPp4JiV-0000]--></g></svg>